<svg width="491" height="491" viewBox="0 0 491 491" fill="none" xmlns="http://www.w3.org/2000/svg">
<rect x="32" y="31" width="428" height="428" rx="70" fill="#0B0B0B"/>
<g filter="url(#filter0_dd_48_2)">
<path d="M208.031 152.875C213.5 152.875 218.188 154.73 222.094 158.441C226 161.957 228.051 166.449 228.246 171.918V197.406H327.855C333.324 197.406 338.012 199.262 341.918 202.973C345.629 206.879 347.484 211.566 347.484 217.035C347.484 222.504 345.531 227.191 341.625 231.098C337.914 234.809 333.324 236.664 327.855 236.664H228.246V242.523C228.051 250.531 228.539 257.953 229.711 264.789C231.078 271.43 234.203 277.387 239.086 282.66C243.969 287.934 250.121 290.766 257.543 291.156H329.027C334.496 291.352 338.988 293.402 342.504 297.309C346.215 301.215 348.07 305.902 348.07 311.371C347.875 316.645 345.922 321.137 342.211 324.848C338.695 328.363 334.301 330.219 329.027 330.414H247.582C233.91 329.633 222.582 325.043 213.598 316.645C204.809 308.051 198.461 297.602 194.555 285.297C190.844 272.992 188.891 259.906 188.695 246.039V236.664H155.004C149.535 236.664 144.945 234.711 141.234 230.805C137.328 227.094 135.375 222.504 135.375 217.035C135.375 211.566 137.23 206.977 140.941 203.266C144.848 199.359 149.535 197.406 155.004 197.406H188.695V171.918C188.891 166.645 190.844 162.25 194.555 158.734C198.266 155.023 202.758 153.07 208.031 152.875Z" fill="white"/>
</g>
<defs>
<filter id="filter0_dd_48_2" x="114.575" y="132.075" width="270.295" height="235.139" filterUnits="userSpaceOnUse" color-interpolation-filters="sRGB">
<feFlood flood-opacity="0" result="BackgroundImageFix"/>
<feColorMatrix in="SourceAlpha" type="matrix" values="0 0 0 0 0 0 0 0 0 0 0 0 0 0 0 0 0 0 127 0" result="hardAlpha"/>
<feOffset dx="8" dy="8"/>
<feGaussianBlur stdDeviation="14.4"/>
<feComposite in2="hardAlpha" operator="out"/>
<feColorMatrix type="matrix" values="0 0 0 0 1 0 0 0 0 1 0 0 0 0 1 0 0 0 0.2 0"/>
<feBlend mode="normal" in2="BackgroundImageFix" result="effect1_dropShadow_48_2"/>
<feColorMatrix in="SourceAlpha" type="matrix" values="0 0 0 0 0 0 0 0 0 0 0 0 0 0 0 0 0 0 127 0" result="hardAlpha"/>
<feOffset dy="4"/>
<feGaussianBlur stdDeviation="2"/>
<feComposite in2="hardAlpha" operator="out"/>
<feColorMatrix type="matrix" values="0 0 0 0 0 0 0 0 0 0 0 0 0 0 0 0 0 0 0.25 0"/>
<feBlend mode="normal" in2="effect1_dropShadow_48_2" result="effect2_dropShadow_48_2"/>
<feBlend mode="normal" in="SourceGraphic" in2="effect2_dropShadow_48_2" result="shape"/>
</filter>
</defs>
</svg>
